<svg width="674" height="674" viewBox="0 0 674 674" fill="none" xmlns="http://www.w3.org/2000/svg">
<path d="M229.091 289.662C216.754 293.172 204.523 297.198 192.035 300.058C174.673 304.038 161.686 314.48 148.88 325.981C142.749 331.474 134.802 334.954 126.204 340.251C125.478 333.078 125.054 328.871 124.539 323.907H55.0001V340.251H106.405V507.924H55.212V525.16H124.403C124.918 519.879 125.432 514.643 126.053 508.211C143.915 509.513 161.625 504.731 178.548 516.005C187.479 521.967 199.437 523.405 211.123 527.264C211.35 528.323 211.971 530.714 212.379 533.135C216.845 559.663 236.008 577.535 262.589 578.746C279.209 579.503 295.905 579.321 312.556 578.867C328.45 578.443 335.216 566.624 329.54 551.764C326.648 544.167 325.422 535.935 322.894 525.766C331.084 525.766 335.655 525.811 340.211 525.766C369.077 525.402 384.154 500.69 371.514 474.45C371.06 473.512 370.742 472.528 370.394 471.65C388.604 452.235 390.511 442.928 380.884 421.379C400.926 399.708 402.318 388.888 387.999 366.113C408.555 342.581 398.367 308.532 361.236 304.416C359.859 288.527 360.313 287.982 374.92 287.997C378.538 287.997 382.156 288.058 385.789 288.042C395.809 287.982 402.061 292.688 404.785 302.419C409.084 317.733 413.641 332.957 418.469 349.543C423.253 349.543 428.218 349.543 433.198 349.543C444.096 349.543 454.132 348.105 462.291 360.03C469.784 370.986 484.255 368.353 495.789 366.113C515.285 362.315 534.434 356.716 553.718 351.828C564.133 349.179 570.566 342.354 573.593 332.246C588.231 283.381 602.929 234.563 617.384 185.683C622.228 169.294 616.098 156.946 600.098 151.362C594.164 149.289 592.166 146.353 592.741 140.466C593.135 136.532 593.059 132.476 592.651 128.541C591.455 117.161 584.583 111.441 571.686 111.396C538.733 111.275 505.779 111.577 472.826 111.169C467.468 111.108 461.943 108.717 456.811 106.614C441.674 100.409 426.704 100.621 411.476 106.296C405.633 108.475 399.457 111.123 393.418 111.154C328.238 111.502 263.058 111.381 197.863 111.365C186.934 111.365 175.369 110.034 170.344 123.215C164.819 137.727 169.965 156.038 179.381 163.06C178.911 180.069 178.367 195.444 178.109 210.834C177.912 223.5 178.003 236.182 178.079 248.848C178.215 273.772 192.081 287.649 217.178 288.042C221.083 288.103 224.988 288.042 228.894 288.042C228.954 288.587 229.015 289.132 229.091 289.662ZM197.227 243.158H415.427V190.465H196.788C194.291 171.852 200.512 164.527 218.192 164.527C309.392 164.497 400.593 164.512 491.793 164.558C495.168 164.558 498.544 164.981 502.934 165.284C487.025 219.974 471.54 273.379 455.737 326.692C455.086 328.901 451.498 331.398 449.016 331.716C432.622 333.82 432.32 333.426 427.642 317.279C425.932 311.377 424.161 305.506 422.42 299.619C416.138 278.509 405.164 270.231 382.807 270.186C327.799 270.08 272.791 270.11 217.783 270.019C200.391 269.989 193.776 261.832 197.257 243.173L197.227 243.158ZM163.532 420.683C189.704 423.467 210.26 413.056 230.68 396.53C224.792 435.119 219.282 471.302 213.636 508.317C185.39 503.248 162.927 493.548 156.69 463.085C151.241 463.948 146.367 464.719 139.949 465.748C142.038 474.45 143.9 482.228 145.761 489.976H125.993V356.383C142.295 353.765 154.586 345.563 166.06 334.97C173.069 328.508 181.485 322.197 190.385 319.443C215.543 311.665 241.261 305.642 266.827 299.241C269.96 298.454 274.32 298.408 276.817 300.028C291.394 309.455 305.956 318.974 319.625 329.628C323.137 332.367 325.331 339.6 324.696 344.307C322.531 360.363 318.671 376.177 315.81 392.157C313.57 404.611 307.001 407.956 297.222 399.799C293.105 396.364 290.062 389.796 289.472 384.333C288.291 373.301 289.124 362.058 289.124 350.36C275.864 347.121 263.436 344.095 253.961 341.779C240.065 357.639 228.515 372.469 215.24 385.529C201.375 399.179 183.422 404.732 163.532 403.809V420.713V420.683ZM281.116 410.195C258.562 431.548 258.063 444.82 277.877 470.651C261.802 497.467 276.439 523.435 305.169 527.037C307.303 538.523 309.317 549.449 311.375 560.511C294.437 560.511 276.742 561.161 259.137 560.253C248.981 559.724 240.685 554.352 234.721 542.745H266.464C266.116 536.359 265.843 531.229 265.51 525.009H229.817C230.165 520.575 230.211 517.321 230.695 514.128C236.841 473.784 243.001 433.44 249.314 393.11C250.525 385.332 251.448 377.251 254.384 370.078C255.777 366.673 261.453 363.298 265.389 363.041C273.048 362.542 271.55 369.352 271.444 374.149C271.156 386.921 270.869 399.633 281.116 410.195ZM512.016 344.049C529.363 286.802 546.014 231.869 562.649 176.936C566.66 163.695 568.795 162.318 582.524 164.543C585.355 164.997 588.079 166.147 590.895 166.767C599.735 168.719 602.762 173.486 599.992 182.566C585.567 229.887 571.519 277.328 557.003 324.619C555.883 328.281 552.81 333.002 549.586 334.077C538.052 337.936 526.063 340.448 512.001 344.049H512.016ZM547.633 165.269C529.423 225.347 511.471 284.713 493.231 344.004C492.535 346.274 489.129 348.892 486.677 349.255C473.265 351.253 468.875 345.744 472.766 332.336C487.055 283.109 501.375 233.897 515.74 184.7C519.948 170.283 530.579 163.806 547.633 165.269ZM397.838 145.929H187.645V130.009H397.838V145.929ZM231.437 208.988H397.58V225.074H231.437V208.988ZM325.331 425.011V424.965C334.005 424.965 342.694 424.753 351.367 425.026C361.494 425.343 368.472 431.775 368.835 440.628C369.214 449.859 362.008 457.44 351.518 457.652C333.808 458.015 316.083 457.985 298.372 457.622C288.337 457.41 281.692 450.434 281.646 441.354C281.601 432.123 288.125 425.465 298.221 425.101C307.243 424.768 316.295 425.026 325.347 425.026L325.331 425.011ZM324.105 508.06C324.105 508.06 324.105 508.03 324.105 508.015C317.248 508.015 310.316 508.665 303.564 507.848C294.543 506.759 289.154 500.932 289.139 491.792C289.109 482.637 294.528 476.387 303.519 475.797C316.809 474.919 330.221 475.101 343.541 475.645C352.608 476.024 359.072 483.666 358.481 492.322C357.861 501.447 352.699 507.061 343.572 507.939C337.138 508.559 330.599 508.06 324.105 508.06ZM573.987 129.691V146.201H470.056V129.691H573.987ZM335.867 375.026C345.645 375.026 354.576 375.132 363.507 374.996C373.285 374.845 378.402 380.535 379.28 389.267C380.158 398.15 375.495 405.368 366.398 406.306C355.182 407.471 343.768 406.579 331.856 406.579C333.218 395.88 334.429 386.346 335.867 375.011V375.026ZM342.678 324.694C350.323 324.694 358.663 323.938 366.792 324.906C375.329 325.92 380.188 331.898 380.248 340.569C380.309 349.255 375.48 355.354 367.019 356.443C358.663 357.533 350.065 356.685 342.678 356.685V324.694ZM414.852 146.126C416.774 137.455 416.229 125.394 420.649 123.154C427.945 119.462 439.767 119.477 447.124 123.124C451.559 125.318 451.15 137.303 453.224 146.126H414.852ZM341.452 304.689C320.896 311.498 308.09 300.421 293.15 288.678H343.814C342.921 294.701 342.149 299.937 341.452 304.689ZM196.379 225.332V209.154H212.349V225.332H196.379Z" fill="white"/>
<path d="M434.651 191.495V207.823H450.862V191.495H434.651Z" fill="white"/>
<path d="M434.726 243.007H450.771V226.724H434.726V243.007Z" fill="white"/>
</svg>
