<svg width="631" height="534" viewBox="0 0 631 534" fill="none" xmlns="http://www.w3.org/2000/svg">
<path d="M194.746 209.984C180.944 213.912 167.259 218.415 153.287 221.615C133.862 226.068 119.331 237.751 105.003 250.619C98.1436 256.765 89.2522 260.659 79.6326 266.585C78.8197 258.56 78.3455 253.853 77.7696 248.299H-0.0341649V266.585H57.4803V454.185H0.202963V473.47H77.6172C78.193 467.561 78.7689 461.703 79.4632 454.507C99.4477 455.963 119.263 450.613 138.197 463.227C148.189 469.898 161.569 471.506 174.643 475.824C174.897 477.009 175.592 479.684 176.049 482.393C181.045 512.074 202.486 532.07 232.226 533.424C250.821 534.271 269.502 534.068 288.131 533.56C305.914 533.086 313.484 519.862 307.133 503.236C303.899 494.736 302.527 485.525 299.698 474.148C308.861 474.148 313.975 474.198 319.073 474.148C351.37 473.741 368.238 446.092 354.097 416.733C353.589 415.683 353.233 414.583 352.843 413.601C373.217 391.878 375.351 381.465 364.58 357.355C387.003 333.109 388.561 321.003 372.54 295.521C395.539 269.193 384.141 231.097 342.597 226.492C341.056 208.714 341.564 208.104 357.907 208.121C361.955 208.121 366.003 208.189 370.067 208.172C381.279 208.104 388.274 213.37 391.322 224.257C396.132 241.391 401.23 258.424 406.632 276.981C411.984 276.981 417.539 276.981 423.111 276.981C435.305 276.981 446.533 275.373 455.662 288.715C464.045 300.973 480.236 298.027 493.141 295.521C514.955 291.271 536.378 285.007 557.955 279.538C569.607 276.575 576.805 268.939 580.192 257.629C596.569 202.957 613.014 148.336 629.188 93.6478C634.607 75.311 627.748 61.495 609.847 55.2473C603.208 52.9277 600.972 49.643 601.616 43.0567C602.056 38.6545 601.971 34.1169 601.514 29.7147C600.176 16.9823 592.487 10.5822 578.058 10.5314C541.188 10.396 504.319 10.7346 467.449 10.2775C461.454 10.2097 455.272 7.53458 449.531 5.18111C432.595 -1.76077 415.845 -1.52373 398.808 4.82555C392.27 7.26367 385.361 10.2267 378.603 10.2605C305.677 10.65 232.751 10.5145 159.807 10.4976C147.58 10.4976 134.641 9.00761 129.018 23.7549C122.836 39.9921 128.594 60.4791 139.129 68.3353C138.604 87.3662 137.994 104.569 137.706 121.788C137.486 135.959 137.587 150.148 137.672 164.32C137.825 192.206 153.338 207.732 181.418 208.172C185.787 208.24 190.157 208.172 194.526 208.172C194.594 208.781 194.662 209.391 194.746 209.984ZM159.096 157.953H403.228V98.9981H158.605C155.811 78.1725 162.771 69.9776 182.552 69.9776C284.592 69.9438 386.631 69.9607 488.67 70.0115C492.447 70.0115 496.223 70.4856 501.135 70.8242C483.335 132.014 466.01 191.765 448.328 251.415C447.6 253.887 443.586 256.68 440.809 257.036C422.467 259.389 422.129 258.949 416.895 240.883C414.982 234.28 413 227.711 411.052 221.124C404.024 197.505 391.745 188.244 366.731 188.193C305.186 188.074 243.64 188.108 182.095 188.007C162.636 187.973 155.235 178.847 159.13 157.97L159.096 157.953ZM121.397 356.576C150.679 359.691 173.678 348.042 196.525 329.553C189.936 372.728 183.772 413.211 177.455 454.626C145.852 448.954 120.719 438.101 113.742 404.018C107.645 404.983 102.191 405.846 95.0104 406.998C97.3476 416.733 99.4307 425.436 101.514 434.105H79.3955V284.634C97.6355 281.705 111.388 272.528 124.225 260.676C132.066 253.447 141.483 246.386 151.441 243.305C179.589 234.602 208.363 227.863 236.968 220.701C240.473 219.821 245.351 219.77 248.145 221.582C264.455 232.13 280.747 242.78 296.04 254.699C299.969 257.764 302.425 265.857 301.714 271.123C299.292 289.087 294.973 306.78 291.772 324.66C289.266 338.595 281.916 342.336 270.975 333.21C266.368 329.367 262.964 322.019 262.304 315.907C260.983 303.564 261.914 290.983 261.914 277.895C247.078 274.272 233.174 270.886 222.572 268.295C207.025 286.039 194.103 302.632 179.25 317.244C163.737 332.516 143.651 338.73 121.397 337.697V356.61V356.576ZM252.955 344.842C227.721 368.733 227.162 383.581 249.331 412.483C231.345 442.486 247.722 471.54 279.866 475.57C282.254 488.421 284.507 500.645 286.81 513.022C267.859 513.022 248.061 513.75 228.364 512.734C217 512.142 207.719 506.131 201.047 493.145H236.561C236.172 486 235.867 480.26 235.494 473.301H195.559C195.949 468.34 196 464.7 196.542 461.127C203.418 415.988 210.31 370.849 217.373 325.727C218.728 317.024 219.761 307.983 223.046 299.957C224.604 296.148 230.955 292.372 235.359 292.084C243.928 291.525 242.252 299.144 242.133 304.512C241.811 318.802 241.49 333.024 252.955 344.842ZM511.296 270.835C530.705 206.784 549.335 145.322 567.947 83.8614C572.435 69.0464 574.823 67.5057 590.184 69.9946C593.351 70.5025 596.4 71.7893 599.55 72.4835C609.44 74.6676 612.827 80.001 609.728 90.1599C593.588 143.104 577.872 196.184 561.63 249.095C560.377 253.193 556.939 258.475 553.331 259.677C540.426 263.995 527.013 266.805 511.279 270.835H511.296ZM551.147 70.8073C530.773 138.025 510.687 204.447 490.279 270.784C489.5 273.324 485.689 276.253 482.946 276.659C467.94 278.894 463.029 272.731 467.381 257.73C483.369 202.652 499.39 147.591 515.463 92.5472C520.171 76.4172 532.065 69.1706 551.147 70.8073ZM383.548 49.1689H148.376V31.3571H383.548V49.1689ZM197.371 119.722H383.26V137.72H197.371V119.722ZM302.425 361.418V361.367C312.129 361.367 321.851 361.13 331.555 361.435C342.885 361.791 350.693 368.987 351.099 378.891C351.522 389.22 343.461 397.702 331.724 397.939C311.909 398.346 292.077 398.312 272.262 397.905C261.034 397.668 253.599 389.863 253.548 379.704C253.497 369.376 260.797 361.926 272.093 361.52C282.187 361.147 292.314 361.435 302.442 361.435L302.425 361.418ZM301.053 454.338C301.053 454.338 301.053 454.304 301.053 454.287C293.381 454.287 285.625 455.015 278.071 454.101C267.977 452.882 261.948 446.363 261.931 436.136C261.897 425.893 267.96 418.9 278.02 418.24C292.89 417.258 307.895 417.461 322.799 418.071C332.944 418.494 340.175 427.044 339.515 436.729C338.821 446.939 333.045 453.22 322.833 454.202C315.635 454.897 308.319 454.338 301.053 454.338ZM580.632 31.0015V49.4737H464.35V31.0015H580.632ZM314.213 305.494C325.153 305.494 335.145 305.612 345.138 305.46C356.078 305.291 361.803 311.657 362.785 321.426C363.767 331.365 358.551 339.441 348.372 340.491C335.823 341.795 323.053 340.796 309.725 340.796C311.249 328.825 312.604 318.158 314.213 305.477V305.494ZM321.834 249.18C330.386 249.18 339.718 248.333 348.813 249.417C358.365 250.551 363.801 257.239 363.869 266.941C363.937 276.659 358.534 283.483 349.067 284.702C339.718 285.921 330.099 284.973 321.834 284.973V249.18ZM402.584 49.389C404.735 39.6873 404.126 26.193 409.071 23.6871C417.234 19.5559 430.461 19.5728 438.692 23.6533C443.654 26.1083 443.197 39.518 445.517 49.389H402.584ZM320.462 226.796C297.463 234.416 283.135 222.022 266.419 208.883H323.104C322.105 215.622 321.241 221.48 320.462 226.796ZM158.148 138.008V119.908H176.015V138.008H158.148Z" fill="white"/>
<path d="M424.737 100.149V118.418H442.875V100.149H424.737Z" fill="white"/>
<path d="M424.821 157.784H442.773V139.566H424.821V157.784Z" fill="white"/>
</svg>
