<svg width="1060" height="540" viewBox="0 0 1060 540" fill="none" xmlns="http://www.w3.org/2000/svg">
<g clip-path="url(#clip0)">
<circle cx="530" cy="540" r="500" stroke="#7863F7" stroke-opacity="0.06" stroke-width="2"/>
<circle cx="530" cy="540" r="449" stroke="#7863F7" stroke-opacity="0.1" stroke-width="2"/>
<circle cx="530" cy="540" r="399" stroke="#7863F7" stroke-opacity="0.14" stroke-width="2"/>
<circle cx="530" cy="540" r="349" stroke="#7863F7" stroke-opacity="0.18" stroke-width="2"/>
<circle cx="530" cy="540" r="299" stroke="#7863F7" stroke-opacity="0.22" stroke-width="2"/>
<circle cx="530" cy="540" r="249" stroke="#7863F7" stroke-opacity="0.26" stroke-width="2"/>
<circle cx="530" cy="540" r="199" stroke="#7863F7" stroke-opacity="0.3" stroke-width="2"/>
<circle cx="530" cy="540" r="149" stroke="#7863F7" stroke-opacity="0.34" stroke-width="2"/>
<circle cx="530" cy="540" r="99" stroke="#7863F7" stroke-opacity="0.38" stroke-width="2"/>
<circle cx="530" cy="540" r="49" stroke="#7863F7" stroke-opacity="0.42" stroke-width="2"/>
<g filter="url(#filter0_d)">
<rect x="722" y="220" width="120" height="120" rx="60" fill="white"/>
<path d="M801.697 282.663C801.697 283.107 801.475 283.625 801.18 283.921C800.811 284.291 800.369 284.438 799.926 284.438C799.484 284.438 798.967 284.217 798.672 283.921C798.303 283.551 798.156 283.107 798.156 282.663V266.463C798.156 266.019 798.377 265.501 798.672 265.206C799.041 264.836 799.484 264.688 799.926 264.688C800.369 264.688 800.885 264.91 801.18 265.206C801.549 265.575 801.697 266.019 801.697 266.463V282.663ZM801.033 293.907C800.811 294.129 794.098 299.751 781.926 299.751C769.754 299.751 763.115 294.129 762.82 293.907C762.672 293.759 762.525 293.537 762.377 293.389C762.303 293.167 762.23 292.945 762.156 292.723C762.156 292.502 762.156 292.28 762.23 292.058C762.303 291.836 762.451 291.614 762.598 291.466C762.893 291.096 763.336 290.874 763.852 290.874C764.295 290.874 764.811 291.022 765.18 291.318C765.254 291.392 771.23 296.274 782 296.274C792.77 296.274 798.746 291.392 798.82 291.318C799.189 291.022 799.631 290.874 800.148 290.874C800.59 290.874 801.033 291.096 801.402 291.466C801.697 291.836 801.844 292.28 801.844 292.723C801.623 293.167 801.402 293.611 801.033 293.907ZM762.156 266.463C762.156 265.945 762.377 265.501 762.746 265.206C763.115 264.91 763.557 264.688 764.074 264.762C764.516 264.762 764.959 264.984 765.254 265.279C765.549 265.575 765.77 266.019 765.77 266.463V282.589C765.77 283.033 765.549 283.551 765.254 283.847C764.885 284.217 764.443 284.365 764 284.365C763.557 284.365 763.041 284.143 762.746 283.847C762.377 283.477 762.23 283.033 762.23 282.589V266.463H762.156ZM771.156 262.912C771.156 262.395 771.377 261.951 771.746 261.655C772.115 261.359 772.557 261.137 773.074 261.211C773.516 261.211 773.959 261.433 774.254 261.729C774.549 262.025 774.77 262.469 774.77 262.912V286.88C774.77 287.323 774.549 287.841 774.254 288.137C773.885 288.507 773.443 288.655 773 288.655C772.557 288.655 772.041 288.433 771.746 288.137C771.377 287.767 771.23 287.323 771.23 286.88V262.912H771.156ZM780.23 261.951C780.23 261.507 780.451 260.989 780.746 260.693C781.041 260.397 781.557 260.175 782 260.175C782.443 260.175 782.959 260.397 783.254 260.693C783.623 261.063 783.77 261.507 783.77 261.951V287.989C783.77 288.433 783.549 288.951 783.254 289.247C782.885 289.617 782.443 289.765 782 289.765C781.557 289.765 781.041 289.543 780.746 289.247C780.377 288.877 780.23 288.433 780.23 287.989V261.951ZM789.082 262.912C789.082 262.469 789.303 261.951 789.598 261.655C789.967 261.285 790.41 261.137 790.852 261.137C791.295 261.137 791.811 261.359 792.107 261.655C792.475 262.025 792.623 262.469 792.623 262.912V286.88C792.623 287.323 792.402 287.841 792.107 288.137C791.738 288.507 791.295 288.655 790.852 288.655C790.41 288.655 789.893 288.433 789.598 288.137C789.23 287.767 789.082 287.323 789.082 286.88V262.912ZM802.213 253H761.713C760.828 253 760.016 253.148 759.205 253.518C758.393 253.888 757.656 254.332 756.992 254.997C756.402 255.589 755.885 256.403 755.516 257.216C755.148 257.956 755 258.844 755 259.732V300.195C755 301.082 755.148 301.97 755.516 302.784C755.885 303.597 756.328 304.337 756.992 305.003C757.582 305.595 758.393 306.113 759.205 306.482C760.016 306.852 760.902 307 761.787 307H802.213C803.098 307 803.984 306.852 804.795 306.482C805.607 306.113 806.344 305.669 807.008 305.003C807.598 304.411 808.115 303.671 808.484 302.784C808.852 301.97 809 301.082 809 300.195V259.732C809 258.844 808.852 257.956 808.484 257.142C808.115 256.329 807.672 255.589 807.008 254.923C806.418 254.332 805.607 253.814 804.795 253.444C803.91 253.148 803.098 253 802.213 253Z" fill="black"/>
</g>
<g filter="url(#filter1_d)">
<rect x="210" y="63" width="120" height="120" rx="60" fill="white"/>
<path d="M301.567 117.672H282.886L296.092 104.456C295.052 103 293.899 101.624 292.634 100.376C291.37 99.112 290.009 97.96 288.552 96.92L275.33 110.136V91.448C273.601 91.16 271.824 91 270.015 91H269.983C268.175 91 266.398 91.16 264.669 91.448V110.12L251.446 96.92C249.99 97.96 248.629 99.112 247.365 100.376C246.1 101.64 244.947 103 243.907 104.456L257.129 117.672H238.448C238.448 117.672 238 121.176 238 123V123.016C238 124.824 238.16 126.6 238.448 128.344H257.129L243.907 141.544C245.988 144.456 248.533 147.016 251.446 149.08L264.653 135.88V154.552C266.382 154.84 268.159 155 269.967 155H270.015C271.824 155 273.601 154.84 275.33 154.552V135.88L288.552 149.096C290.009 148.056 291.37 146.904 292.634 145.64C293.899 144.376 295.052 143.016 296.092 141.56L282.87 128.344H301.551C301.839 126.616 301.999 124.84 301.999 123.032V122.984C302.015 121.16 301.855 119.4 301.567 117.672ZM278.003 123.016C278.003 125.4 277.571 127.672 276.771 129.768C274.674 130.568 272.385 131 270.015 131H269.983C267.598 131 265.325 130.568 263.228 129.768C262.428 127.672 261.996 125.384 261.996 123.016V122.984C261.996 120.6 262.428 118.328 263.228 116.232C265.325 115.432 267.614 115 269.983 115H270.015C272.401 115 274.674 115.432 276.771 116.232C277.571 118.328 278.003 120.616 278.003 122.984V123.016Z" fill="#FF4A00"/>
</g>
<g filter="url(#filter2_d)">
<rect x="556" y="368" width="120" height="120" rx="60" fill="white"/>
<path d="M612.262 399.748L586.175 410.539C584.718 411.133 584.738 413.184 586.194 413.778L612.396 424.167C614.697 425.087 617.265 425.087 619.565 424.167L645.767 413.778C647.224 413.203 647.243 411.133 645.786 410.539L619.699 399.748C617.303 398.751 614.639 398.751 612.262 399.748Z" fill="#FFBF00"/>
<path d="M618.3 429.821V455.774C618.3 457.001 619.546 457.844 620.696 457.404L649.888 446.076C650.559 445.807 651 445.175 651 444.446V418.493C651 417.267 649.754 416.423 648.604 416.864L619.412 428.192C618.741 428.461 618.3 429.112 618.3 429.821Z" fill="#26B5F8"/>
<path d="M611.476 431.163L602.813 435.342L601.931 435.763L583.645 444.523C582.495 445.079 581 444.235 581 442.951V418.608C581 418.148 581.23 417.746 581.556 417.439C581.69 417.305 581.843 417.19 581.997 417.113C582.438 416.845 583.051 416.787 583.588 416.998L611.323 427.981C612.742 428.537 612.857 430.511 611.476 431.163Z" fill="#ED3049"/>
<path d="M582.955 416.864C582.61 416.864 582.284 416.96 582.035 417.113C581.882 417.209 581.728 417.305 581.594 417.439L602.832 435.342L611.496 431.163C612.147 430.837 612.473 430.224 612.473 429.611C612.473 428.94 612.09 428.25 611.361 427.962L583.607 416.979C583.396 416.903 583.166 416.864 582.955 416.864Z" fill="#B22437"/>
</g>
<g filter="url(#filter3_d)">
<rect x="449" y="155" width="120" height="120" rx="60" fill="white"/>
<path fill-rule="evenodd" clip-rule="evenodd" d="M474 200.183L491.452 211.366L508.903 200.183L491.452 189L474 200.183Z" fill="#0061FF"/>
<path fill-rule="evenodd" clip-rule="evenodd" d="M509.097 200.183L526.548 211.366L544 200.183L526.548 189L509.097 200.183Z" fill="#0061FF"/>
<path fill-rule="evenodd" clip-rule="evenodd" d="M474 222.163L491.452 233.346L508.903 222.163L491.452 210.98L474 222.163Z" fill="#0061FF"/>
<path fill-rule="evenodd" clip-rule="evenodd" d="M526.548 210.98L509.097 222.163L526.548 233.346L544 222.163L526.548 210.98Z" fill="#0061FF"/>
<path fill-rule="evenodd" clip-rule="evenodd" d="M491.645 236.817L509.097 248L526.548 236.817L509.097 225.634L491.645 236.817Z" fill="#0061FF"/>
</g>
<g filter="url(#filter4_d)">
<rect x="270" y="289" width="120" height="120" rx="60" fill="white"/>
<path d="M341.877 344.195C341.551 342.669 341.582 341.575 342.483 341.421C343.384 341.283 343.819 342.207 344.13 343.717C344.347 344.749 344.301 345.689 344.068 346.228C343.648 346.167 343.198 346.167 342.732 346.228C342.375 345.797 342.048 345.057 341.877 344.195ZM335.027 347.445C335.664 347.723 336.068 347.908 336.223 347.753C336.316 347.646 336.285 347.461 336.145 347.214C335.835 346.706 335.182 346.182 334.483 345.889C333.07 345.288 331.376 345.489 330.087 346.413C329.652 346.721 329.248 347.153 329.31 347.415C329.326 347.507 329.388 347.569 329.543 347.584C329.901 347.63 331.128 346.999 332.557 346.922C333.551 346.86 334.39 347.168 335.027 347.445ZM333.738 348.185C332.899 348.308 332.433 348.585 332.138 348.847C331.889 349.063 331.734 349.31 331.734 349.479C331.734 349.556 331.765 349.602 331.796 349.633C331.827 349.664 331.874 349.679 331.936 349.679C332.122 349.679 332.542 349.51 332.542 349.51C333.707 349.094 334.468 349.14 335.229 349.233C335.648 349.279 335.85 349.31 335.943 349.156C335.975 349.109 336.006 349.032 335.912 348.894C335.742 348.57 334.887 348.046 333.738 348.185ZM340.138 350.866C340.712 351.143 341.334 351.035 341.536 350.619C341.738 350.203 341.442 349.649 340.883 349.371C340.309 349.094 339.687 349.202 339.485 349.618C339.268 350.034 339.563 350.588 340.138 350.866ZM343.788 347.692C343.322 347.676 342.949 348.185 342.934 348.817C342.918 349.448 343.291 349.957 343.757 349.972C344.223 349.987 344.596 349.479 344.611 348.847C344.611 348.216 344.239 347.707 343.788 347.692ZM312.798 359.016C312.689 358.877 312.487 358.923 312.316 358.954C312.192 358.985 312.037 359.016 311.881 359.016C311.54 359.016 311.26 358.862 311.089 358.615C310.872 358.292 310.887 357.814 311.12 357.275C311.151 357.198 311.182 357.121 311.229 357.028C311.602 356.212 312.223 354.825 311.54 353.516C311.011 352.53 310.157 351.913 309.132 351.79C308.153 351.667 307.128 352.021 306.491 352.73C305.466 353.839 305.31 355.364 305.512 355.904C305.59 356.104 305.699 356.15 305.776 356.166C305.947 356.196 306.211 356.058 306.367 355.642C306.382 355.611 306.398 355.565 306.413 355.503C306.491 355.272 306.615 354.856 306.833 354.517C307.097 354.101 307.501 353.824 307.982 353.731C308.479 353.623 308.976 353.716 309.396 353.993C310.11 354.455 310.39 355.334 310.079 356.15C309.924 356.582 309.66 357.398 309.722 358.076C309.831 359.432 310.685 359.987 311.446 360.048C312.192 360.079 312.705 359.663 312.829 359.37C312.907 359.17 312.844 359.062 312.798 359.016ZM357.8 360.125C357.8 362.667 356.743 365.533 356.495 366.165C352.674 375.255 343.555 380.308 332.681 379.985C322.553 379.692 313.916 374.392 310.142 365.749C307.858 365.749 305.497 364.747 303.71 363.176C301.815 361.512 300.65 359.37 300.417 357.136C300.246 355.395 300.464 353.778 301.008 352.36L298.879 350.573C289.171 342.438 319.555 308.928 329.279 317.34C329.326 317.387 332.588 320.545 332.588 320.56C332.604 320.56 334.39 319.805 334.39 319.805C342.918 316.308 349.831 317.987 349.846 323.58C349.846 326.492 347.982 329.866 345 332.948C346.087 333.949 346.957 335.505 347.454 337.292C347.874 338.602 347.951 339.942 347.982 340.805C348.029 341.991 348.091 344.749 348.091 344.795C348.169 344.811 349.023 345.057 349.287 345.119C351.571 345.751 353.202 346.598 353.994 347.43C354.786 348.262 355.19 349.063 355.33 350.003C355.47 350.758 355.439 352.098 354.444 353.608C354.444 353.608 354.709 354.178 354.957 354.964C355.206 355.765 355.392 356.428 355.423 356.52C356.355 356.52 357.8 357.568 357.8 360.125ZM314.864 355.133C314.196 350.896 311.307 349.402 309.349 349.294C308.806 349.263 308.293 349.31 307.874 349.402C304.363 350.095 302.39 353.053 302.778 356.905C303.136 360.387 306.677 363.314 309.955 363.391C310.297 363.407 310.639 363.376 310.965 363.314C314.522 362.714 315.454 358.893 314.864 355.133ZM320.86 328.218C325.411 324.458 330.32 321.747 330.32 321.747C330.32 321.747 327.679 318.712 326.872 318.48C321.963 317.171 311.353 324.428 304.58 334.011C301.846 337.893 297.916 344.765 299.796 348.293C300.029 348.724 301.334 349.849 302.033 350.434C303.213 348.74 305.124 347.522 307.314 347.091C310.079 339.711 314.724 332.901 320.86 328.218ZM331.532 361.774C331.703 363.237 333.132 363.884 333.831 364.146C334.685 364.485 335.633 364.639 335.633 364.639C343.4 365.964 350.67 361.558 352.301 360.449C352.425 360.372 352.503 360.449 352.409 360.587C352.316 360.726 352.316 360.741 352.254 360.818C350.25 363.376 344.876 366.35 337.87 366.35C334.809 366.35 331.765 365.286 330.646 363.638C328.907 361.096 330.553 357.383 333.458 357.768C333.458 357.768 334.452 357.876 334.732 357.907C338.351 358.307 343.602 357.799 347.92 355.811C351.866 353.993 353.373 351.99 353.14 350.373C353.077 349.941 352.876 349.479 352.456 349.048C351.742 348.354 350.623 347.815 348.712 347.291C348.091 347.122 347.656 346.999 347.206 346.86C346.382 346.598 345.994 346.382 345.901 344.857C345.854 344.195 345.745 341.868 345.699 340.913C345.621 339.234 345.419 336.938 343.99 335.998C343.617 335.752 343.198 335.628 342.763 335.613C342.328 335.597 342.126 335.675 342.033 335.69C341.209 335.829 340.728 336.26 340.122 336.753C338.336 338.232 336.813 338.479 335.136 338.402C334.126 338.355 333.07 338.201 331.843 338.14C331.609 338.124 331.361 338.109 331.128 338.093C328.316 337.955 325.287 340.358 324.79 343.794C324.091 348.555 327.571 351.02 328.58 352.468C328.705 352.637 328.86 352.884 328.86 353.115C328.86 353.392 328.674 353.608 328.503 353.793C325.629 356.72 324.712 361.373 325.8 365.256C325.94 365.733 326.11 366.211 326.312 366.642C328.86 372.528 336.736 375.27 344.425 372.774C345.45 372.435 346.429 372.019 347.345 371.542C349.07 370.71 350.576 369.554 351.819 368.229C353.854 366.118 355.081 363.807 355.547 360.973C355.78 359.463 355.439 358.862 354.973 358.584C354.476 358.292 353.901 358.384 353.901 358.384C353.901 358.384 353.637 356.566 352.876 354.918C350.639 356.674 347.749 357.907 345.543 358.538C343.011 359.262 339.578 359.817 335.742 359.586C333.613 359.416 332.215 358.8 331.687 360.51C336.549 362.267 341.691 361.512 341.691 361.512C341.784 361.496 341.877 361.573 341.893 361.666C341.909 361.743 341.846 361.82 341.784 361.851C341.753 361.882 337.808 363.7 331.532 361.774ZM331.827 360.726C331.827 360.726 331.811 360.726 331.827 360.726C331.811 360.726 331.811 360.726 331.827 360.726C331.811 360.726 331.811 360.726 331.827 360.726ZM319.975 334.134C322.056 332.639 324.914 331.237 328.643 330.328C332.821 329.312 336.86 329.743 339.314 330.298C339.439 330.328 339.516 330.113 339.408 330.051C337.776 329.142 335.291 328.526 333.52 328.526C333.427 328.526 333.38 328.418 333.443 328.356C333.753 327.94 334.173 327.54 334.545 327.247C334.639 327.185 334.576 327.047 334.468 327.047C331.951 327.201 329.077 328.402 327.415 329.512C327.338 329.573 327.229 329.496 327.244 329.404C327.369 328.788 327.773 327.971 327.99 327.601C328.037 327.509 327.943 327.416 327.85 327.463C325.194 328.803 322.227 331.207 319.819 333.964C319.742 334.072 319.866 334.211 319.975 334.134Z" fill="black"/>
</g>
<g filter="url(#filter5_d)">
<rect x="20" y="339" width="120" height="120" rx="60" fill="white"/>
<path d="M73.5857 387.689H108.433C109.074 387.689 109.644 388.262 109.644 388.906V392.987C109.644 393.631 109.074 394.204 108.433 394.204H73.5857C72.9443 394.204 72.3742 393.631 72.3742 392.987V388.906C72.3742 388.19 72.9443 387.689 73.5857 387.689ZM50.5682 403.868H85.3439C85.9852 403.868 86.5553 404.441 86.5553 405.085V409.166C86.5553 409.81 85.9852 410.383 85.3439 410.383H50.5682C49.9268 410.383 49.3567 409.81 49.3567 409.166V405.085C49.3567 404.441 49.8556 403.868 50.5682 403.868ZM53.8462 392.128C54.4876 392.271 55.1289 391.913 55.3427 391.269C59.3334 378.669 72.2317 371.224 85.0588 374.088C85.7002 374.231 86.2703 373.801 86.4841 373.229L87.553 369.291C87.6955 368.647 87.3392 368.003 86.6978 367.788C86.6978 367.788 86.6978 367.788 86.6266 367.788C70.3077 364.137 53.9887 373.586 49.0717 389.551C48.8579 390.195 49.2142 390.839 49.8556 391.054C49.8556 391.054 49.8556 391.054 49.9268 391.054L53.8462 392.128ZM105.155 405.944C104.513 405.801 103.872 406.159 103.658 406.803C99.6675 419.403 86.7691 426.848 73.942 423.985C73.3006 423.841 72.7306 424.271 72.5168 424.844L71.4478 428.781C71.3053 429.425 71.6616 430.07 72.303 430.284C72.303 430.284 72.303 430.284 72.3742 430.284C88.6219 433.935 104.941 424.486 109.858 408.522C110.072 407.877 109.715 407.233 109.074 407.018C109.074 407.018 109.074 407.018 109.003 407.018L105.155 405.944ZM97.8859 373.443C99.81 373.443 101.449 375.018 101.449 377.023C101.449 379.027 99.8813 380.602 97.8859 380.602C95.8906 380.602 94.3228 379.027 94.3228 377.023C94.3228 375.018 95.9619 373.443 97.8859 373.443ZM61.1149 417.47C63.039 417.47 64.678 419.045 64.678 421.05C64.678 423.054 63.1102 424.629 61.1149 424.629C59.1196 424.629 57.5518 423.054 57.5518 421.05C57.5518 419.045 59.1196 417.47 61.1149 417.47Z" fill="#52BD94"/>
</g>
<g filter="url(#filter6_d)">
<rect x="630" y="20" width="120" height="120" rx="60" fill="white"/>
<path d="M671.446 88.4431C671.446 92.1434 668.423 95.1662 664.723 95.1662C661.023 95.1662 658 92.1434 658 88.4431C658 84.7428 661.023 81.72 664.723 81.72H671.446V88.4431Z" fill="#E01E5A"/>
<path d="M674.834 88.4431C674.834 84.7428 677.857 81.72 681.557 81.72C685.257 81.72 688.28 84.7428 688.28 88.4431V105.277C688.28 108.977 685.257 112 681.557 112C677.857 112 674.834 108.977 674.834 105.277C674.834 105.277 674.834 88.4431 674.834 88.4431Z" fill="#E01E5A"/>
<path d="M681.557 61.4463C677.857 61.4463 674.834 58.4235 674.834 54.7231C674.834 51.0228 677.857 48 681.557 48C685.257 48 688.28 51.0228 688.28 54.7231V61.4463H681.557Z" fill="#36C5F0"/>
<path d="M681.557 64.8337C685.257 64.8337 688.28 67.8565 688.28 71.5569C688.28 75.2572 685.257 78.28 681.557 78.28H664.723C661.023 78.28 658 75.2572 658 71.5569C658 67.8565 661.023 64.8337 664.723 64.8337C664.723 64.8337 681.557 64.8337 681.557 64.8337Z" fill="#36C5F0"/>
<path d="M708.554 71.5569C708.554 67.8565 711.577 64.8337 715.277 64.8337C718.977 64.8337 722 67.8565 722 71.5569C722 75.2572 718.977 78.28 715.277 78.28H708.554V71.5569Z" fill="#2EB67D"/>
<path d="M705.166 71.557C705.166 75.2573 702.143 78.2801 698.443 78.2801C694.743 78.2801 691.72 75.2573 691.72 71.557V54.7231C691.72 51.0228 694.743 48 698.443 48C702.143 48 705.166 51.0228 705.166 54.7231V71.557Z" fill="#2EB67D"/>
<path d="M698.443 98.5537C702.143 98.5537 705.166 101.577 705.166 105.277C705.166 108.977 702.143 112 698.443 112C694.743 112 691.72 108.977 691.72 105.277V98.5537H698.443Z" fill="#ECB22E"/>
<path d="M698.443 95.1662C694.743 95.1662 691.72 92.1434 691.72 88.4431C691.72 84.7428 694.743 81.72 698.443 81.72H715.277C718.977 81.72 722 84.7428 722 88.4431C722 92.1434 718.977 95.1662 715.277 95.1662H698.443Z" fill="#ECB22E"/>
</g>
<g filter="url(#filter7_d)">
<rect x="925" y="330" width="120" height="120" rx="60" fill="white"/>
<g clip-path="url(#clip1)">
<path d="M955.295 412.14L958.386 417.429C959.035 418.541 959.941 419.419 961.024 420.044L972.047 401.134H950C950 402.363 950.315 403.592 950.965 404.705L955.295 412.14Z" fill="#0066DA"/>
<path d="M985 378.867L973.976 359.956C972.894 360.6 971.969 361.459 971.339 362.571L950.965 397.543C950.315 398.655 950 399.885 950 401.114H972.047L985 378.867Z" fill="#00AC47"/>
<path d="M985 378.867L996.024 359.956C994.941 359.312 993.701 359 992.421 359H977.598C976.319 359 975.079 359.351 973.996 359.956L985 378.867Z" fill="#00832D"/>
<path d="M997.953 401.134H972.047L961.024 420.044C962.106 420.688 963.346 421 964.626 421H1005.35C1006.63 421 1007.87 420.649 1008.96 420.044L997.953 401.134Z" fill="#2684FC"/>
<path d="M1008.98 420.044C1010.06 419.4 1010.98 418.541 1011.61 417.429L1012.89 415.243L1019.04 404.705C1019.69 403.592 1020 402.363 1020 401.134H997.992L1008.98 420.044Z" fill="#EA4335"/>
<path d="M1008.86 380.057L998.681 362.571C998.031 361.459 997.126 360.581 996.043 359.956L985.02 378.867L997.972 401.114H1019.98C1019.98 399.885 1019.67 398.655 1019.02 397.543L1008.86 380.057Z" fill="#FFBA00"/>
</g>
</g>
</g>
<defs>
<filter id="filter0_d" x="706" y="208" width="152" height="152" filterUnits="userSpaceOnUse" color-interpolation-filters="sRGB">
<feFlood flood-opacity="0" result="BackgroundImageFix"/>
<feColorMatrix in="SourceAlpha" type="matrix" values="0 0 0 0 0 0 0 0 0 0 0 0 0 0 0 0 0 0 127 0"/>
<feOffset dy="4"/>
<feGaussianBlur stdDeviation="8"/>
<feColorMatrix type="matrix" values="0 0 0 0 0.470588 0 0 0 0 0.388235 0 0 0 0 0.968627 0 0 0 0.2 0"/>
<feBlend mode="normal" in2="BackgroundImageFix" result="effect1_dropShadow"/>
<feBlend mode="normal" in="SourceGraphic" in2="effect1_dropShadow" result="shape"/>
</filter>
<filter id="filter1_d" x="194" y="51" width="152" height="152" filterUnits="userSpaceOnUse" color-interpolation-filters="sRGB">
<feFlood flood-opacity="0" result="BackgroundImageFix"/>
<feColorMatrix in="SourceAlpha" type="matrix" values="0 0 0 0 0 0 0 0 0 0 0 0 0 0 0 0 0 0 127 0"/>
<feOffset dy="4"/>
<feGaussianBlur stdDeviation="8"/>
<feColorMatrix type="matrix" values="0 0 0 0 0.470588 0 0 0 0 0.388235 0 0 0 0 0.968627 0 0 0 0.2 0"/>
<feBlend mode="normal" in2="BackgroundImageFix" result="effect1_dropShadow"/>
<feBlend mode="normal" in="SourceGraphic" in2="effect1_dropShadow" result="shape"/>
</filter>
<filter id="filter2_d" x="540" y="356" width="152" height="152" filterUnits="userSpaceOnUse" color-interpolation-filters="sRGB">
<feFlood flood-opacity="0" result="BackgroundImageFix"/>
<feColorMatrix in="SourceAlpha" type="matrix" values="0 0 0 0 0 0 0 0 0 0 0 0 0 0 0 0 0 0 127 0"/>
<feOffset dy="4"/>
<feGaussianBlur stdDeviation="8"/>
<feColorMatrix type="matrix" values="0 0 0 0 0.470588 0 0 0 0 0.388235 0 0 0 0 0.968627 0 0 0 0.2 0"/>
<feBlend mode="normal" in2="BackgroundImageFix" result="effect1_dropShadow"/>
<feBlend mode="normal" in="SourceGraphic" in2="effect1_dropShadow" result="shape"/>
</filter>
<filter id="filter3_d" x="433" y="143" width="152" height="152" filterUnits="userSpaceOnUse" color-interpolation-filters="sRGB">
<feFlood flood-opacity="0" result="BackgroundImageFix"/>
<feColorMatrix in="SourceAlpha" type="matrix" values="0 0 0 0 0 0 0 0 0 0 0 0 0 0 0 0 0 0 127 0"/>
<feOffset dy="4"/>
<feGaussianBlur stdDeviation="8"/>
<feColorMatrix type="matrix" values="0 0 0 0 0.470588 0 0 0 0 0.388235 0 0 0 0 0.968627 0 0 0 0.2 0"/>
<feBlend mode="normal" in2="BackgroundImageFix" result="effect1_dropShadow"/>
<feBlend mode="normal" in="SourceGraphic" in2="effect1_dropShadow" result="shape"/>
</filter>
<filter id="filter4_d" x="254" y="277" width="152" height="152" filterUnits="userSpaceOnUse" color-interpolation-filters="sRGB">
<feFlood flood-opacity="0" result="BackgroundImageFix"/>
<feColorMatrix in="SourceAlpha" type="matrix" values="0 0 0 0 0 0 0 0 0 0 0 0 0 0 0 0 0 0 127 0"/>
<feOffset dy="4"/>
<feGaussianBlur stdDeviation="8"/>
<feColorMatrix type="matrix" values="0 0 0 0 0.470588 0 0 0 0 0.388235 0 0 0 0 0.968627 0 0 0 0.2 0"/>
<feBlend mode="normal" in2="BackgroundImageFix" result="effect1_dropShadow"/>
<feBlend mode="normal" in="SourceGraphic" in2="effect1_dropShadow" result="shape"/>
</filter>
<filter id="filter5_d" x="4" y="327" width="152" height="152" filterUnits="userSpaceOnUse" color-interpolation-filters="sRGB">
<feFlood flood-opacity="0" result="BackgroundImageFix"/>
<feColorMatrix in="SourceAlpha" type="matrix" values="0 0 0 0 0 0 0 0 0 0 0 0 0 0 0 0 0 0 127 0"/>
<feOffset dy="4"/>
<feGaussianBlur stdDeviation="8"/>
<feColorMatrix type="matrix" values="0 0 0 0 0.470588 0 0 0 0 0.388235 0 0 0 0 0.968627 0 0 0 0.2 0"/>
<feBlend mode="normal" in2="BackgroundImageFix" result="effect1_dropShadow"/>
<feBlend mode="normal" in="SourceGraphic" in2="effect1_dropShadow" result="shape"/>
</filter>
<filter id="filter6_d" x="614" y="8" width="152" height="152" filterUnits="userSpaceOnUse" color-interpolation-filters="sRGB">
<feFlood flood-opacity="0" result="BackgroundImageFix"/>
<feColorMatrix in="SourceAlpha" type="matrix" values="0 0 0 0 0 0 0 0 0 0 0 0 0 0 0 0 0 0 127 0"/>
<feOffset dy="4"/>
<feGaussianBlur stdDeviation="8"/>
<feColorMatrix type="matrix" values="0 0 0 0 0.470588 0 0 0 0 0.388235 0 0 0 0 0.968627 0 0 0 0.2 0"/>
<feBlend mode="normal" in2="BackgroundImageFix" result="effect1_dropShadow"/>
<feBlend mode="normal" in="SourceGraphic" in2="effect1_dropShadow" result="shape"/>
</filter>
<filter id="filter7_d" x="909" y="318" width="152" height="152" filterUnits="userSpaceOnUse" color-interpolation-filters="sRGB">
<feFlood flood-opacity="0" result="BackgroundImageFix"/>
<feColorMatrix in="SourceAlpha" type="matrix" values="0 0 0 0 0 0 0 0 0 0 0 0 0 0 0 0 0 0 127 0"/>
<feOffset dy="4"/>
<feGaussianBlur stdDeviation="8"/>
<feColorMatrix type="matrix" values="0 0 0 0 0.470588 0 0 0 0 0.388235 0 0 0 0 0.968627 0 0 0 0.2 0"/>
<feBlend mode="normal" in2="BackgroundImageFix" result="effect1_dropShadow"/>
<feBlend mode="normal" in="SourceGraphic" in2="effect1_dropShadow" result="shape"/>
</filter>
<clipPath id="clip0">
<rect width="1060" height="540" fill="white"/>
</clipPath>
<clipPath id="clip1">
<rect width="70" height="62" fill="white" transform="translate(950 359)"/>
</clipPath>
</defs>
</svg>
