<svg width="674" height="674" viewBox="0 0 674 674" fill="none" xmlns="http://www.w3.org/2000/svg">
<path d="M422.069 196.578H401.641V83.8746C401.641 77.5599 396.781 72.4409 390.785 72.4409H282.216C276.22 72.4409 271.36 77.5599 271.36 83.8746V196.578H250.932C232.775 196.578 218 212.135 218 231.259V575.319C218 594.441 232.774 610 250.932 610H422.069C440.226 610 455 594.443 455 575.319V231.26C455 212.136 440.228 196.578 422.069 196.578ZM390.242 264.063V340.712H282.76V264.063H390.242ZM379.928 95.3083V240.749L293.073 240.748V95.3083H379.928ZM433.286 575.319C433.286 581.833 428.254 587.133 422.069 587.133H250.932C244.747 587.133 239.714 581.833 239.714 575.319V231.259C239.714 224.745 244.746 219.445 250.932 219.445H271.36V240.776C268.679 240.918 266.133 242.088 264.226 244.096C262.19 246.24 261.047 249.149 261.047 252.182V352.145C261.047 358.459 265.907 363.578 271.904 363.578H401.099C407.095 363.578 411.955 358.459 411.955 352.145V252.182C411.955 246.06 407.383 241.077 401.641 240.776V219.445H422.069C428.254 219.445 433.286 224.745 433.286 231.26V575.319Z" fill="white"/>
<path d="M319.735 398.829H271.086C265.09 398.829 260.229 403.948 260.229 410.263C260.229 416.577 265.09 421.696 271.086 421.696H319.735C325.731 421.696 330.592 416.577 330.592 410.263C330.592 403.948 325.731 398.829 319.735 398.829Z" fill="white"/>
<path d="M400.816 398.829H352.168C346.172 398.829 341.312 403.948 341.312 410.263C341.312 416.577 346.172 421.696 352.168 421.696H400.816C406.812 421.696 411.673 416.577 411.673 410.263C411.673 403.948 406.811 398.829 400.816 398.829Z" fill="white"/>
<path d="M319.735 458.109H271.086C265.09 458.109 260.229 463.228 260.229 469.543C260.229 475.858 265.09 480.977 271.086 480.977H319.735C325.731 480.977 330.592 475.858 330.592 469.543C330.592 463.228 325.731 458.109 319.735 458.109Z" fill="white"/>
<path d="M400.816 458.109H352.168C346.172 458.109 341.312 463.228 341.312 469.543C341.312 475.858 346.172 480.977 352.168 480.977H400.816C406.812 480.977 411.673 475.858 411.673 469.543C411.673 463.228 406.811 458.109 400.816 458.109Z" fill="white"/>
<path d="M319.735 518.553H271.086C265.09 518.553 260.229 523.672 260.229 529.987C260.229 536.302 265.09 541.421 271.086 541.421H319.735C325.731 541.421 330.592 536.302 330.592 529.987C330.592 523.672 325.731 518.553 319.735 518.553Z" fill="white"/>
<path d="M400.816 518.553H352.168C346.172 518.553 341.312 523.672 341.312 529.987C341.312 536.302 346.172 541.421 352.168 541.421H400.816C406.812 541.421 411.673 536.302 411.673 529.987C411.673 523.672 406.811 518.553 400.816 518.553Z" fill="white"/>
</svg>
